<?xml version="1.0" standalone="no"?>
<!DOCTYPE svg PUBLIC "-//W3C//DTD SVG 20010904//EN"
 "http://www.w3.org/TR/2001/REC-SVG-20010904/DTD/svg10.dtd">
<svg version="1.0" xmlns="http://www.w3.org/2000/svg"
 width="640.000000pt" height="427.000000pt" viewBox="0 0 640.000000 427.000000"
 preserveAspectRatio="xMidYMid meet">

<g transform="translate(0.000000,427.000000) scale(0.100000,-0.100000)"
fill="#000000" stroke="none">
<path d="M4099 3238 c-1 -7 -1 -16 0 -20 0 -5 -6 -8 -15 -8 -10 0 -14 6 -10
15 3 8 1 15 -4 15 -11 0 -13 -12 -10 -49 2 -29 -14 -41 -58 -41 -33 0 -58 13
-122 61 -33 25 -41 27 -161 28 -105 0 -131 -3 -160 -18 -19 -11 -33 -23 -32
-28 1 -5 -20 -8 -47 -5 -27 2 -58 -2 -70 -8 l-22 -12 21 -19 c11 -10 29 -19
40 -19 14 0 18 -5 14 -21 -5 -17 -2 -19 21 -13 20 5 26 2 26 -9 0 -22 -56 -32
-86 -16 -30 15 -31 14 -38 -39 -3 -23 -8 -47 -12 -54 -4 -7 -3 -8 4 -4 11 7
17 -14 12 -39 -1 -5 -2 -18 -3 -28 -1 -10 -7 -15 -15 -12 -7 2 -11 1 -8 -4 3
-5 -1 -14 -9 -21 -11 -9 -15 -9 -15 -1 0 9 -5 9 -20 1 -11 -6 -20 -15 -20 -21
0 -5 -11 -21 -24 -35 l-23 -26 -69 81 c-38 45 -75 81 -82 81 -7 0 -35 22 -63
50 -64 64 -81 72 -142 69 -29 -2 -79 3 -112 10 -69 15 -201 10 -260 -10 -23
-8 -45 -24 -52 -39 -8 -15 -13 -19 -14 -10 0 9 -5 6 -12 -8 -9 -20 -16 -23
-46 -18 -19 3 -46 16 -60 30 -20 19 -47 29 -116 41 -92 16 -189 18 -215 4 -8
-4 -53 -20 -100 -34 -46 -14 -92 -34 -102 -45 -10 -11 -25 -16 -37 -13 -14 4
-23 -1 -28 -13 -10 -27 -49 -65 -121 -115 -35 -24 -79 -55 -98 -69 -30 -20
-49 -25 -120 -27 -46 -1 -93 -7 -105 -13 -20 -11 -20 -12 -3 -31 16 -17 16
-22 4 -29 -8 -6 -25 -10 -38 -10 -12 0 -25 -7 -28 -15 -3 -8 -30 -29 -60 -46
-30 -17 -54 -37 -54 -45 0 -8 -4 -14 -9 -14 -14 0 -121 -100 -121 -113 0 -6
-14 -22 -31 -36 -40 -34 -52 -112 -33 -215 l14 -70 -32 -33 c-28 -29 -31 -36
-20 -53 8 -14 9 -21 0 -26 -7 -5 -9 -2 -4 7 4 8 1 6 -8 -4 -8 -11 -27 -49 -41
-85 -15 -37 -31 -75 -36 -85 -59 -113 -61 -123 -54 -226 5 -64 3 -111 -5 -141
-7 -24 -14 -111 -16 -193 -4 -137 -3 -150 16 -174 26 -34 27 -56 0 -48 -11 4
-20 2 -20 -4 0 -6 11 -11 25 -11 14 0 25 5 25 10 0 6 10 14 22 19 l21 8 -21
21 c-13 13 -17 22 -9 22 6 1 1 7 -12 14 l-24 13 27 7 c33 8 45 1 40 -22 -2 -9
0 -24 6 -32 8 -13 11 -13 19 -1 7 11 11 9 20 -8 7 -11 21 -21 31 -21 11 0 20
-6 20 -14 0 -8 4 -17 9 -20 13 -8 11 65 -2 89 -5 11 -16 25 -23 30 -6 6 -15
21 -19 35 -4 17 -3 21 3 11 5 -7 15 -10 21 -7 6 4 11 0 11 -11 1 -16 2 -16 13
-2 13 18 104 32 113 18 3 -5 10 -7 15 -4 5 4 14 3 20 -1 8 -4 7 -9 -2 -15 -7
-4 -18 -4 -24 1 -6 5 -18 2 -30 -7 -19 -15 -19 -15 3 -8 22 6 23 5 17 -17 -4
-12 -12 -24 -16 -26 -5 -2 -9 -11 -9 -20 0 -14 2 -14 9 -3 7 12 12 11 30 -1
11 -8 18 -18 15 -21 -4 -3 -4 -18 0 -32 4 -17 13 -25 29 -25 21 -1 21 -1 4
-14 -21 -16 -8 -29 20 -20 15 5 15 4 3 -5 -8 -6 -23 -8 -33 -5 -9 3 -30 -4
-47 -16 -16 -12 -34 -18 -40 -15 -5 3 -10 1 -10 -4 0 -14 52 -14 163 1 72 10
91 16 95 30 5 19 32 24 48 9 5 -6 26 -6 54 1 25 5 58 9 75 9 74 -1 566 91 845
158 69 17 186 37 260 46 74 8 213 24 309 35 96 11 177 24 180 29 3 4 21 12 39
16 34 7 35 25 1 25 -23 0 -24 13 -3 44 10 16 12 26 5 31 -12 7 -15 55 -3 55 4
0 26 18 50 40 37 36 55 45 65 38 2 -2 20 12 41 29 29 26 43 32 69 29 39 -5 77
18 59 36 -9 9 -12 9 -12 0 0 -7 -8 -12 -19 -12 -13 0 -20 10 -25 31 -3 17 -10
28 -15 25 -14 -9 -19 24 -9 58 5 20 4 32 -4 37 -9 6 -9 14 0 35 7 14 10 29 8
32 -4 4 52 92 59 92 1 0 -1 -15 -3 -32 -4 -29 -3 -31 11 -20 9 8 22 12 29 10
15 -5 53 39 53 61 0 8 11 19 25 23 20 6 18 7 -12 5 l-37 -3 31 28 c24 21 34
25 45 17 16 -14 17 3 1 19 -8 8 -8 15 -2 21 12 13 98 32 104 23 3 -4 3 -6 1
-5 -2 2 -10 -6 -18 -17 -8 -11 -25 -20 -37 -20 -19 0 -23 -5 -20 -27 1 -15 -4
-36 -13 -45 -14 -16 -14 -17 8 -13 13 3 25 9 27 15 2 5 8 10 13 10 14 0 6 -24
-13 -35 -18 -11 -68 -80 -68 -95 0 -6 7 -10 15 -10 9 0 15 7 13 17 -2 10 5 19
16 21 14 3 17 0 12 -13 -3 -9 -6 -22 -6 -29 0 -8 -10 -12 -26 -10 -23 2 -25 0
-20 -22 4 -14 2 -24 -4 -24 -5 0 -10 8 -10 18 -1 15 -2 15 -15 -2 -8 -11 -18
-17 -21 -13 -8 7 -60 -18 -70 -34 -4 -7 -3 -9 4 -5 6 3 12 1 15 -6 2 -7 3 -4
1 7 -3 20 -3 20 11 1 8 -11 15 -26 15 -33 0 -7 4 -13 9 -13 5 0 4 -11 -2 -24
-7 -13 -15 -22 -19 -20 -11 7 -18 -11 -9 -24 5 -9 13 -7 28 7 12 11 23 26 26
33 4 11 7 10 15 -1 7 -9 12 -10 16 -2 4 6 2 11 -4 11 -6 0 -3 12 9 28 12 18
17 33 11 42 -6 10 -9 7 -12 -11 -4 -31 -38 -39 -38 -10 0 13 10 26 26 33 22
10 27 9 36 -6 8 -13 13 -15 24 -5 11 9 14 9 14 -2 0 -8 6 -6 16 7 15 19 15 18
11 -3 -3 -14 0 -23 6 -23 7 0 5 -5 -3 -10 -12 -8 -11 -10 8 -10 34 0 26 -17
-10 -23 -22 -3 -39 1 -50 11 -17 14 -18 13 -18 -14 0 -24 -6 -32 -31 -41 -17
-7 -28 -17 -24 -22 3 -6 1 -11 -4 -11 -6 0 -11 5 -11 11 0 8 -5 7 -15 -1 -9
-7 -12 -16 -7 -19 12 -8 23 -41 14 -41 -4 0 -13 9 -20 21 -11 16 -16 18 -27 9
-8 -7 -12 -16 -9 -22 3 -5 12 -4 20 3 11 9 14 8 14 -5 0 -9 -8 -16 -17 -16
-10 0 -29 -3 -42 -7 -20 -5 -22 -3 -17 15 8 24 -11 41 -20 18 -3 -9 -10 -16
-16 -16 -5 0 -6 6 -2 13 8 12 -17 -5 -44 -30 -7 -7 -20 -13 -28 -13 -8 0 -14
-10 -14 -25 0 -18 4 -23 15 -19 8 4 22 1 30 -6 11 -10 18 -9 30 4 19 18 45 21
45 5 0 -8 5 -7 15 1 14 12 15 10 11 -15 -6 -32 -13 -41 -23 -31 -4 4 -1 11 7
16 9 6 10 10 3 10 -6 0 -14 -4 -18 -10 -3 -5 -12 -7 -20 -3 -8 3 -15 0 -15 -6
0 -6 6 -11 14 -11 17 0 25 -20 22 -54 -3 -21 2 -28 21 -32 26 -7 40 -5 183 25
52 12 175 26 273 33 l178 12 -6 27 c-6 25 -4 27 42 35 47 9 48 10 45 44 -3 39
26 80 56 80 13 0 12 -5 -8 -20 -24 -19 -24 -19 -2 -13 22 5 32 -12 11 -19 -7
-2 -9 -13 -5 -26 5 -14 12 -20 19 -15 7 4 6 -1 -2 -10 -12 -15 -11 -17 5 -17
15 0 13 -5 -11 -30 -21 -22 -25 -30 -13 -30 9 0 24 7 33 16 9 10 26 18 38 20
146 21 172 27 188 43 18 17 82 41 108 41 6 0 11 -5 11 -11 0 -5 -4 -8 -9 -5
-5 3 -25 -1 -45 -9 -37 -16 -50 -29 -18 -19 14 5 14 3 -2 -10 -11 -9 -15 -16
-9 -16 7 0 15 5 18 10 3 5 15 10 26 10 10 0 19 3 19 8 0 4 25 7 55 7 30 0 55
-3 55 -7 0 -5 -9 -8 -20 -8 -11 0 -20 -6 -20 -14 0 -8 -6 -16 -12 -19 -7 -2 0
-8 15 -12 18 -5 76 2 160 19 102 20 183 28 357 36 383 16 802 25 1098 24 l282
-1 0 187 c0 141 -3 190 -12 193 -10 4 -10 6 0 6 9 1 12 37 12 145 0 140 0 144
-22 150 -34 9 -303 -1 -386 -14 -136 -22 -495 -1 -573 34 -19 8 -55 18 -80 21
-63 8 -130 52 -123 80 4 18 -12 35 -88 97 -51 41 -108 83 -126 92 -18 9 -42
26 -53 37 -10 10 -28 19 -39 19 -27 0 -114 45 -139 71 -17 19 -26 21 -78 15
-32 -4 -67 -9 -78 -12 -11 -2 -15 -1 -9 2 12 5 9 71 -3 104 -4 8 -5 18 -5 22
1 4 -25 5 -58 1 -33 -3 -60 -3 -60 1 0 3 9 15 20 26 25 25 24 72 -2 115 -10
17 -18 40 -18 52 0 23 -29 81 -61 122 -11 13 -19 39 -19 57 0 24 -5 34 -15 34
-8 0 -15 7 -15 16 0 14 -7 15 -40 10 -31 -5 -40 -3 -40 8 0 14 -41 46 -60 46
-5 0 -10 -6 -10 -14 0 -8 -5 -18 -12 -22 -8 -5 -9 -2 -5 10 4 10 3 15 -3 11
-6 -3 -10 -13 -10 -22 0 -14 -4 -13 -22 4 -36 32 -68 46 -69 31z m161 -128 c0
-10 5 -20 11 -22 7 -2 8 -17 4 -41 -6 -30 -10 -35 -21 -26 -8 6 -14 29 -14 50
0 21 -5 41 -11 45 -6 3 -9 15 -6 25 3 11 1 19 -4 19 -6 0 -4 6 3 14 11 11 15
9 25 -16 7 -17 13 -38 13 -48z m-279 -93 c36 -19 85 -69 93 -94 4 -12 26 -35
49 -51 157 -107 154 -104 133 -137 -10 -15 -12 -25 -6 -25 6 0 -4 -15 -23 -33
-23 -21 -38 -46 -42 -70 -4 -20 -11 -37 -17 -37 -5 0 -6 -5 -3 -10 4 -6 11 -7
17 -4 7 4 7 0 0 -12 -5 -11 -12 -39 -16 -64 -4 -25 -11 -52 -16 -60 -8 -13
-11 -13 -22 2 -7 9 -25 22 -40 27 -23 9 -28 7 -33 -10 -8 -24 -56 -50 -62 -33
-2 6 -16 9 -31 6 -15 -2 -68 10 -117 26 l-90 30 -7 47 c-8 53 -56 117 -102
134 l-30 11 22 16 c12 8 20 20 16 25 -3 5 -9 23 -14 39 -8 28 -6 30 47 57 64
32 123 101 123 143 0 24 9 32 63 58 72 35 77 36 108 19z m-584 -181 c-1 -24
-4 -41 -7 -37 -10 15 -38 19 -49 8 -14 -14 -14 -2 -1 24 6 10 15 19 21 19 6 0
7 -6 3 -12 -4 -8 -3 -10 2 -5 5 5 9 12 9 15 0 9 15 32 20 32 2 0 3 -20 2 -44z
m-1707 30 c0 -2 -7 -7 -16 -10 -8 -3 -12 -2 -9 4 6 10 25 14 25 6z m1688 -85
c11 -6 11 -10 0 -18 -9 -7 -18 -4 -30 9 -17 17 -17 18 0 18 9 0 23 -4 30 -9z
m-1464 -33 c-7 -53 -9 -62 -17 -75 -4 -6 -1 -14 5 -16 7 -3 3 -6 -9 -6 -13 -1
-23 -7 -23 -16 0 -8 -7 -15 -16 -15 -12 0 -10 7 10 30 14 17 29 47 33 68 7 36
9 46 12 57 0 3 3 5 5 5 3 0 3 -15 0 -32z m-33 -25 c-12 -20 -14 -14 -5 12 4 9
9 14 11 11 3 -2 0 -13 -6 -23z m2594 -104 c4 -6 13 -8 20 -5 8 3 17 -3 20 -13
5 -18 38 -22 52 -6 5 4 2 5 -4 1 -7 -4 -13 -5 -13 -2 0 3 10 11 23 17 12 6 19
8 14 4 -9 -11 43 -46 56 -38 5 3 7 0 5 -8 -3 -8 -12 -13 -20 -11 -9 1 -21 -5
-28 -13 -7 -8 -16 -15 -21 -15 -13 0 -49 -38 -49 -51 0 -6 7 -8 15 -5 8 3 22
9 32 13 12 4 14 3 8 -6 -5 -10 -2 -11 13 -7 13 5 22 1 26 -10 5 -13 4 -15 -7
-5 -11 9 -17 8 -27 -4 -11 -13 -15 -13 -21 -3 -7 10 -9 10 -9 1 0 -7 -7 -13
-15 -13 -8 0 -15 -4 -15 -9 0 -5 25 -8 55 -6 30 1 52 -2 49 -7 -3 -4 -9 -6
-14 -3 -5 3 -11 1 -15 -5 -3 -5 -2 -10 4 -10 18 0 0 -28 -22 -34 -26 -7 -36 2
-17 14 8 6 10 10 4 10 -7 0 -22 -13 -35 -30 -14 -18 -37 -32 -56 -36 -18 -3
-33 -11 -33 -18 0 -6 -4 -5 -9 4 -6 8 -7 18 -4 23 3 5 6 29 8 54 l3 46 -17
-34 c-10 -23 -24 -35 -41 -38 -22 -3 -83 -41 -66 -41 4 0 4 -5 1 -10 -5 -8
-11 -7 -21 1 -11 9 -14 8 -14 -7 0 -12 -3 -15 -10 -8 -15 15 -3 39 25 52 13 6
29 20 35 32 9 17 8 20 -10 20 -14 0 -20 7 -20 23 0 45 23 74 72 92 26 9 52 23
59 31 6 8 18 14 25 14 8 0 14 10 14 23 0 15 -3 18 -8 9 -7 -10 -15 -10 -36 -2
-23 9 -26 13 -16 25 14 17 46 20 55 4z m-237 -51 c-7 -13 -11 -27 -9 -33 1 -5
-3 -4 -10 2 -10 10 -9 17 6 33 24 26 29 25 13 -2z m377 -48 c-3 -5 -10 -10
-16 -10 -5 0 -9 5 -9 10 0 6 7 10 16 10 8 0 12 -4 9 -10z m65 -40 c-8 -5 -22
-9 -30 -9 -10 0 -8 3 5 9 27 12 43 12 25 0z m7 -79 c12 -11 12 -15 1 -22 -18
-12 -30 -11 -23 1 3 6 2 10 -4 10 -5 0 -11 -6 -14 -12 -2 -7 -7 -10 -11 -6 -4
3 0 21 10 40 12 23 19 28 22 18 3 -8 12 -21 19 -29z m-3557 -55 c0 -2 -8 -10
-17 -17 -16 -13 -17 -12 -4 4 13 16 21 21 21 13z m3575 -46 c-4 -6 -12 -10
-18 -9 -22 4 -107 -13 -113 -22 -3 -5 0 -9 7 -9 26 0 0 -10 -39 -15 -53 -7
-102 -26 -83 -32 8 -3 -2 -13 -25 -24 l-39 -18 38 4 c26 2 37 0 37 -10 0 -8 5
-17 12 -21 7 -4 8 -3 4 4 -5 8 1 12 14 12 12 0 28 7 36 15 9 8 21 15 27 15 7
0 -1 -12 -18 -26 -16 -14 -23 -23 -13 -20 14 4 15 0 8 -25 -8 -28 0 -36 33
-30 5 1 6 -3 2 -9 -3 -5 -13 -10 -21 -10 -8 0 -14 -6 -12 -12 2 -7 -1 -14 -6
-15 -5 -1 -12 -6 -15 -11 -3 -5 -41 -13 -83 -16 -70 -7 -78 -6 -94 13 -18 20
-54 20 -80 0 -6 -5 -13 -7 -16 -4 -3 3 -11 -1 -18 -10 -7 -8 -20 -15 -29 -15
-23 0 -41 -19 -34 -36 3 -8 -1 -14 -8 -14 -12 0 -12 -2 -1 -9 10 -6 2 -11 -25
-16 -21 -4 -43 -11 -50 -16 -7 -6 -25 -4 -52 8 -39 17 -54 33 -30 33 6 0 9 6
6 14 -3 8 1 20 9 26 8 7 14 9 14 6 0 -4 10 2 22 14 23 21 155 89 187 95 10 2
44 15 74 30 41 19 58 33 66 55 12 35 8 37 -26 10 -30 -23 -43 -19 -19 6 15 15
15 18 1 40 -8 13 -11 24 -5 24 5 0 10 -5 10 -10 0 -6 12 -15 26 -20 22 -9 29
-7 46 15 11 14 28 25 37 24 9 -1 19 0 24 1 4 1 10 3 15 5 4 1 14 5 22 8 8 4
42 8 75 10 33 2 75 4 93 5 21 1 31 -2 27 -8z m-368 -16 c-3 -3 -12 -4 -19 -1
-8 3 -5 6 6 6 11 1 17 -2 13 -5z m-3197 -14 c8 -5 11 -10 5 -10 -5 0 -17 5
-25 10 -8 5 -10 10 -5 10 6 0 17 -5 25 -10z m3540 0 c0 -5 -5 -10 -11 -10 -5
0 -7 5 -4 10 3 6 8 10 11 10 2 0 4 -4 4 -10z m-3636 -38 c-15 -31 -34 -43 -34
-21 0 11 42 60 47 55 2 -2 -4 -17 -13 -34z m715 19 c-7 -10 -27 -24 -46 -30
-23 -9 -33 -18 -29 -27 3 -8 1 -14 -4 -14 -6 0 -10 12 -10 28 0 23 4 27 33 29
17 1 36 9 42 18 5 8 13 15 18 15 4 0 2 -8 -4 -19z m51 -2 c-7 -11 -14 -19 -16
-16 -7 7 7 37 17 37 6 0 5 -9 -1 -21z m2795 -19 c-3 -5 -13 -10 -21 -10 -8 0
-14 5 -14 10 0 6 9 10 21 10 11 0 17 -4 14 -10z m-2960 -9 c-3 -5 -1 -12 5
-16 19 -12 10 -33 -17 -40 -15 -3 -40 -17 -56 -31 -28 -23 -87 -34 -87 -15 0
6 11 9 24 8 35 -3 35 17 0 24 -16 4 -22 7 -14 8 9 0 40 17 70 36 53 33 87 45
75 26z m2895 -1 c-20 -13 -33 -13 -25 0 3 6 14 10 23 10 15 0 15 -2 2 -10z
m-3457 -23 c7 4 6 -1 -2 -11 -8 -9 -20 -15 -28 -12 -7 3 -13 1 -13 -4 0 -5 -7
-7 -16 -3 -12 4 -10 9 13 24 15 10 30 14 31 9 2 -6 9 -7 15 -3z m54 -2 c0 -8
-4 -15 -9 -15 -4 0 -8 7 -8 15 0 8 4 15 8 15 5 0 9 -7 9 -15z m1053 1 c0 -3
-4 -8 -10 -11 -5 -3 -10 -1 -10 4 0 6 5 11 10 11 6 0 10 -2 10 -4z m2410 -16
c0 -5 -4 -10 -10 -10 -5 0 -10 5 -10 10 0 6 5 10 10 10 6 0 10 -4 10 -10z
m-3440 -14 c0 -3 -13 -11 -30 -20 -16 -8 -30 -10 -30 -5 0 5 10 14 23 19 25
10 37 12 37 6z m-86 -25 c-10 -10 -25 -16 -32 -13 -16 6 -4 18 23 25 11 3 22
5 24 6 3 0 -4 -7 -15 -18z m3516 16 c0 -2 -10 -12 -21 -23 -22 -19 -22 -19 -8
4 12 19 29 30 29 19z m-3575 -17 c-3 -5 -12 -10 -18 -10 -7 0 -6 4 3 10 19 12
23 12 15 0z m86 -36 c-17 -7 -31 -18 -31 -24 0 -5 -7 -10 -15 -10 -8 0 -12 -6
-9 -14 3 -8 1 -17 -5 -21 -7 -4 -8 0 -4 11 5 14 2 16 -15 12 -19 -5 -20 -4
-11 14 6 11 24 25 40 31 16 6 29 14 29 18 0 3 12 4 26 1 l26 -5 -31 -13z
m-107 7 c20 10 20 10 2 -5 -11 -9 -24 -16 -29 -16 -5 0 -7 -6 -4 -14 3 -8 -1
-17 -9 -20 -27 -10 -38 -6 -20 7 9 7 18 22 19 35 1 13 5 18 11 12 6 -6 17 -5
30 1z m3626 -26 c0 -8 -4 -15 -10 -15 -5 0 -10 7 -10 15 0 8 5 15 10 15 6 0
10 -7 10 -15z m-3600 -85 c0 -5 -4 -10 -10 -10 -5 0 -10 -6 -10 -14 0 -14 -27
-31 -43 -27 -5 1 -7 -4 -5 -11 4 -12 -14 -38 -25 -38 -9 0 6 45 17 52 6 4 11
12 11 18 0 7 11 18 25 25 30 17 40 18 40 5z m3480 -4 c0 -8 -8 -21 -19 -28
-18 -13 -21 -18 -21 -37 0 -14 -37 -24 -52 -14 -13 7 -18 9 -50 11 -10 1 -18
8 -18 16 0 8 -4 16 -10 18 -6 2 -6 8 0 18 8 13 10 12 10 -3 0 -15 3 -15 20 -5
16 10 24 10 40 0 17 -10 20 -10 20 3 0 9 9 15 24 15 14 0 28 5 31 10 9 15 25
12 25 -4z m-955 -6 c-3 -5 -1 -10 4 -10 23 0 9 -15 -15 -16 -24 -2 -25 -1 -8
17 18 20 29 25 19 9z m330 -19 c-6 -5 -25 10 -25 20 0 5 6 4 14 -3 8 -7 12
-15 11 -17z m410 9 c-9 -14 8 -12 24 3 11 10 12 9 6 -1 -10 -18 -51 -33 -70
-25 -13 4 -12 8 7 18 29 16 41 18 33 5z m-3230 -10 c-3 -5 -14 -10 -23 -10
-15 0 -15 2 -2 10 20 13 33 13 25 0z m2715 6 c0 -2 -7 -9 -15 -16 -13 -11 -14
-10 -9 4 5 14 24 23 24 12z m858 -33 c-12 -14 -88 -18 -88 -5 0 16 11 19 54
18 34 -1 42 -4 34 -13z m-1048 -3 c-20 -13 -33 -13 -25 0 3 6 14 10 23 10 15
0 15 -2 2 -10z m-2510 -21 c0 -5 -7 -9 -16 -9 -9 0 -12 -5 -8 -12 4 -7 3 -8
-4 -4 -9 5 -9 12 0 26 12 18 28 18 28 -1z m2515 -20 c4 -11 4 -23 1 -27 -10
-9 -39 25 -32 37 11 17 24 13 31 -10z m1057 4 c23 -20 23 -33 1 -33 -28 0 -47
16 -40 34 8 20 16 20 39 -1z m-1112 -18 c-7 -8 -19 -15 -28 -15 -11 0 -9 5 8
20 26 22 40 19 20 -5z m718 -11 c-3 -29 -27 -47 -47 -35 -9 6 -6 10 10 14 13
4 20 9 16 13 -6 6 10 34 19 34 2 0 3 -12 2 -26z m62 14 c0 -8 3 -9 8 -3 4 6
32 11 62 12 l55 2 -32 -16 c-20 -10 -33 -25 -37 -44 -3 -16 -10 -29 -15 -29
-6 0 -8 7 -5 15 4 8 1 15 -5 15 -6 0 -11 -7 -11 -15 0 -14 -12 -19 -32 -16 -5
0 -8 -4 -8 -11 0 -31 -21 13 -25 52 -4 35 -2 40 9 31 9 -8 16 -8 20 -2 3 5 0
12 -6 14 -8 3 -6 6 5 6 9 1 17 -5 17 -11z m2050 -8 c0 -5 -8 -10 -17 -10 -15
0 -16 2 -3 10 19 12 20 12 20 0z m-2275 -22 c-6 -17 -4 -20 9 -15 14 6 15 3 6
-13 -9 -17 -38 -24 -76 -19 -4 0 -10 -3 -13 -9 -3 -5 -21 -14 -40 -20 -27 -10
-36 -10 -42 0 -5 8 7 20 34 36 23 13 45 28 48 34 4 5 22 14 40 18 19 4 35 8
37 9 2 1 0 -9 -3 -21z m79 9 c14 -13 7 -50 -9 -47 -5 1 -12 -7 -16 -17 -6 -13
-8 -14 -8 -3 -1 13 -2 13 -11 0 -8 -13 -10 -12 -10 3 0 9 9 26 20 37 11 11 15
20 9 20 -5 0 -7 5 -4 10 8 13 14 13 29 -3z m406 -28 c0 6 12 11 28 10 15 0 36
2 47 6 16 5 20 1 21 -19 1 -14 -4 -27 -12 -30 -8 -3 -14 1 -14 10 0 10 -6 14
-14 11 -8 -3 -16 -1 -19 6 -2 6 -4 -8 -5 -32 -1 -24 3 -50 9 -57 14 -17 5 -18
-22 -4 -15 9 -17 15 -9 30 8 16 7 20 -4 20 -10 0 -13 6 -9 18 6 14 4 15 -8 5
-15 -12 -82 -27 -111 -25 -10 0 -20 -3 -23 -8 -3 -6 8 -8 26 -6 29 3 31 2 25
-24 -4 -23 -1 -29 19 -34 29 -7 55 2 55 20 0 8 5 14 10 14 16 0 12 -30 -5 -36
-8 -4 -15 -10 -15 -16 0 -5 5 -6 10 -3 6 3 10 -1 10 -10 0 -10 -6 -15 -13 -12
-8 3 -22 -6 -32 -19 -20 -27 -40 -32 -31 -8 3 8 2 12 -4 9 -6 -3 -10 -12 -10
-20 0 -16 -29 -28 -44 -17 -6 4 -43 7 -81 6 -88 -2 -95 15 -27 66 66 49 72 56
72 80 0 12 5 18 10 15 6 -3 10 1 10 10 0 8 12 20 28 26 15 6 35 15 44 20 10 5
24 6 33 3 10 -4 15 0 15 11 0 15 3 15 20 -5 11 -13 20 -18 20 -11z m-3490 -16
c-14 -10 -32 -25 -40 -35 -14 -16 -16 -16 -30 -1 -13 15 -12 16 4 10 13 -5 24
0 38 18 11 14 27 25 36 25 12 0 10 -5 -8 -17z m2526 -5 c4 -7 3 -8 -4 -4 -7 4
-12 2 -12 -3 0 -6 4 -11 8 -11 4 0 8 -9 9 -20 1 -11 -2 -20 -8 -20 -5 0 -9 5
-9 12 0 6 -6 4 -13 -7 -8 -11 -16 -14 -20 -8 -4 6 -18 8 -32 5 -30 -5 -32 8
-4 34 17 16 22 16 29 4 6 -8 10 -22 10 -30 1 -12 3 -11 11 3 5 9 7 22 4 27 -7
12 2 30 15 30 5 0 12 -5 16 -12z m1024 -18 c0 -5 -5 -10 -11 -10 -5 0 -7 5 -4
10 3 6 8 10 11 10 2 0 4 -4 4 -10z m-110 -30 c0 -5 -5 -10 -11 -10 -5 0 -7 5
-4 10 3 6 8 10 11 10 2 0 4 -4 4 -10z m16 -37 c-10 -10 -19 5 -10 18 6 11 8
11 12 0 2 -7 1 -15 -2 -18z m-496 7 c0 -5 -5 -10 -11 -10 -5 0 -7 5 -4 10 3 6
8 10 11 10 2 0 4 -4 4 -10z m-416 -15 c7 -19 -5 -19 -30 0 -19 14 -19 14 2 15
12 0 24 -7 28 -15z m-4 -25 c12 -8 11 -10 -7 -10 -13 0 -23 5 -23 10 0 13 11
13 30 0z m975 -40 c-3 -5 -11 -10 -16 -10 -6 0 -7 5 -4 10 3 6 11 10 16 10 6
0 7 -4 4 -10z m-35 -20 c0 -5 -4 -10 -10 -10 -5 0 -10 5 -10 10 0 6 5 10 10
10 6 0 10 -4 10 -10z m-105 -50 c-3 -5 -11 -10 -16 -10 -6 0 -7 5 -4 10 3 6
11 10 16 10 6 0 7 -4 4 -10z m-273 -12 c-15 -15 -15 -28 -1 -28 5 0 7 5 4 10
-3 6 -1 10 4 10 14 0 14 -13 -1 -28 -15 -15 -32 -16 -23 -2 3 6 1 10 -4 10 -6
0 -11 -6 -11 -14 0 -8 -4 -17 -9 -20 -14 -9 0 35 18 56 8 10 20 18 25 18 6 0
5 -5 -2 -12z m79 -1 c-17 -21 -2 -28 23 -11 13 7 48 16 79 19 55 5 56 5 48
-17 -4 -12 -13 -24 -19 -26 -7 -2 -10 3 -6 12 3 9 1 16 -5 16 -6 0 -11 -6 -11
-12 0 -10 -2 -10 -8 -1 -8 13 -52 7 -52 -7 0 -16 -55 -18 -72 -3 -24 21 -23
31 5 36 12 2 24 5 26 6 2 0 -2 -5 -8 -12z m274 2 c13 -19 -4 -22 -37 -6 l-33
17 32 0 c17 0 35 -5 38 -11z m-405 -3 c0 -2 -6 -9 -13 -15 -10 -8 -14 -7 -14
4 0 8 6 15 14 15 7 0 13 -2 13 -4z m-17 -56 c-3 -11 -12 -20 -19 -20 -11 0
-10 5 3 20 10 11 18 20 19 20 1 0 0 -9 -3 -20z m-2563 -50 c0 -5 -2 -10 -4
-10 -3 0 -8 5 -11 10 -3 6 -1 10 4 10 6 0 11 -4 11 -10z m25 -44 c11 -11 9
-13 -16 -14 -25 -1 -28 2 -18 14 14 17 17 17 34 0z m-75 -6 c0 -5 -5 -10 -11
-10 -6 0 -9 -7 -5 -15 3 -9 0 -15 -10 -15 -10 0 -14 -6 -10 -15 3 -8 1 -15 -5
-15 -6 0 -7 -4 -4 -10 3 -5 -1 -10 -11 -10 -13 0 -14 3 -4 15 14 17 5 35 -16
35 -11 0 -14 -8 -12 -27 3 -25 0 -28 -34 -30 -42 -4 -46 2 -22 29 16 16 16 18
0 24 -9 3 -24 0 -34 -7 -15 -13 -16 -12 -4 3 8 9 37 22 65 28 29 6 59 15 67
20 20 13 50 13 50 0z m21 -46 c-9 -12 -18 -20 -20 -18 -3 2 1 10 7 16 14 14
16 32 2 23 -5 -3 -7 0 -4 9 5 12 9 12 19 3 10 -9 9 -16 -4 -33z m-331 16 c0
-5 -5 -10 -11 -10 -5 0 -7 5 -4 10 3 6 8 10 11 10 2 0 4 -4 4 -10z m110 -19
c-14 -27 -4 -47 16 -30 22 18 16 4 -11 -25 -14 -15 -25 -22 -25 -16 0 6 -5 8
-12 4 -7 -4 -8 -3 -4 4 4 7 14 12 22 12 8 0 13 4 9 10 -4 6 -15 6 -30 0 -20
-8 -25 -6 -25 7 0 15 -2 14 -19 -1 -13 -12 -21 -14 -26 -6 -5 8 -10 8 -20 0
-15 -12 -35 -6 -35 11 0 5 5 9 11 9 5 0 7 -4 4 -10 -3 -5 -1 -10 4 -10 6 0 11
4 11 8 0 9 66 32 88 32 6 0 9 -8 6 -17 -2 -10 1 -7 8 7 13 25 29 42 36 35 2
-2 -1 -13 -8 -24z m-70 9 c0 -5 -4 -10 -10 -10 -5 0 -10 5 -10 10 0 6 5 10 10
10 6 0 10 -4 10 -10z m-236 -7 c-5 -5 -12 -12 -16 -18 -4 -6 -8 -2 -8 8 0 9 7
17 17 17 9 0 12 -3 7 -7z m89 -41 c-13 -13 -16 -13 -24 -1 -7 12 -9 11 -9 -2
0 -9 -7 -20 -16 -23 -8 -3 -13 -10 -10 -15 3 -5 -1 -11 -9 -14 -9 -4 -12 -1
-8 9 3 8 -1 14 -11 14 -25 0 -19 19 9 30 14 5 28 16 31 24 4 11 11 12 34 3 25
-9 26 -12 13 -25z m357 34 c0 -3 -4 -8 -10 -11 -5 -3 -10 -1 -10 4 0 6 5 11
10 11 6 0 10 -2 10 -4z m-10 -56 c0 -5 -5 -10 -11 -10 -5 0 -7 5 -4 10 3 6 8
10 11 10 2 0 4 -4 4 -10z m-668 -46 c-8 -14 -9 -13 -9 10 0 18 3 24 9 18 7 -7
7 -16 0 -28z m348 22 c0 -18 -27 -46 -43 -46 -7 0 -4 7 6 14 9 7 17 21 17 30
0 9 5 16 10 16 6 0 10 -6 10 -14z m237 -11 c-7 -13 -14 -20 -15 -14 -5 14 6
39 17 39 5 0 4 -11 -2 -25z m34 -8 c-10 -9 -11 -8 -5 6 3 10 9 15 12 12 3 -3
0 -11 -7 -18z m-247 -12 c-4 -8 -10 -15 -15 -15 -4 0 -6 7 -3 15 4 8 10 15 15
15 4 0 6 -7 3 -15z m-130 -19 c-6 -16 -24 -13 -24 5 0 6 5 7 10 4 6 -3 10 -1
10 6 0 7 2 10 5 7 3 -3 3 -13 -1 -22z m143 -48 c-3 -8 -6 -5 -6 6 -1 11 2 17
5 13 3 -3 4 -12 1 -19z m-30 -23 c-4 -8 -12 -15 -19 -14 -10 0 -10 2 0 6 6 2
12 12 12 21 0 8 3 13 6 9 4 -3 4 -13 1 -22z m-17 -81 c0 -8 -4 -12 -10 -9 -5
3 -10 10 -10 16 0 5 5 9 10 9 6 0 10 -7 10 -16z m90 -88 c0 -2 -9 -6 -20 -9
-11 -3 -18 -1 -14 4 5 9 34 13 34 5z m42 -18 c-9 -9 -15 -9 -24 0 -9 9 -7 12
12 12 19 0 21 -3 12 -12z"/>
<path d="M4584 2575 c-9 -22 1 -29 15 -11 8 10 9 16 1 21 -5 3 -13 -1 -16 -10z"/>
<path d="M4447 2493 c-4 -3 -6 -18 -6 -32 1 -21 2 -22 6 -6 3 11 10 26 15 33
11 12 -3 18 -15 5z"/>
<path d="M4390 2445 c0 -8 2 -15 4 -15 2 0 6 7 10 15 3 8 1 15 -4 15 -6 0 -10
-7 -10 -15z"/>
<path d="M4360 2408 c0 -10 23 -15 43 -10 27 7 20 17 -13 17 -16 0 -30 -3 -30
-7z"/>
<path d="M4436 2122 c-4 -11 -15 -22 -24 -24 -12 -2 -13 -6 -5 -11 6 -4 19 0
28 10 9 9 20 12 23 7 9 -12 34 -11 48 1 18 16 4 27 -24 20 -15 -4 -28 -1 -32
6 -5 8 -10 5 -14 -9z"/>
<path d="M4485 2060 c-3 -5 -1 -10 4 -10 6 0 11 5 11 10 0 6 -2 10 -4 10 -3 0
-8 -4 -11 -10z"/>
<path d="M4310 1859 c0 -5 5 -7 10 -4 6 3 10 8 10 11 0 2 -4 4 -10 4 -5 0 -10
-5 -10 -11z"/>
<path d="M3370 2935 c-7 -9 -8 -15 -2 -15 5 0 12 7 16 15 3 8 4 15 2 15 -2 0
-9 -7 -16 -15z"/>
<path d="M3455 1890 c-3 -5 -12 -7 -20 -3 -20 7 -19 -11 0 -27 18 -15 28 -8
30 20 2 22 -1 25 -10 10z"/>
<path d="M3295 1810 c-3 -5 -1 -10 4 -10 6 0 11 5 11 10 0 6 -2 10 -4 10 -3 0
-8 -4 -11 -10z"/>
<path d="M4030 1509 c0 -5 5 -7 10 -4 6 3 10 8 10 11 0 2 -4 4 -10 4 -5 0 -10
-5 -10 -11z"/>
<path d="M3141 1464 c0 -11 3 -14 6 -6 3 7 2 16 -1 19 -3 4 -6 -2 -5 -13z"/>
<path d="M3145 1409 c-4 -6 -14 -8 -22 -5 -11 4 -13 2 -9 -9 3 -8 0 -15 -7
-15 -7 0 -18 -9 -25 -20 -12 -19 -10 -20 55 -20 83 0 116 8 109 26 -3 7 0 15
7 17 7 2 -15 3 -48 1 -46 -3 -56 -2 -42 6 9 6 17 15 17 20 0 13 -27 13 -35 -1z"/>
<path d="M3993 1398 c-2 -5 10 -8 26 -8 17 0 31 3 31 8 0 4 -12 7 -26 7 -14 0
-28 -3 -31 -7z"/>
<path d="M0 1284 l0 -47 68 7 c79 7 112 15 112 27 0 7 -148 59 -171 59 -5 0
-9 -21 -9 -46z"/>
<path d="M3801 1319 c-13 -5 -21 -12 -18 -15 3 -3 15 0 27 6 32 17 36 5 6 -15
-21 -14 -29 -15 -41 -5 -10 8 -15 9 -15 1 0 -14 -65 -41 -92 -38 -11 1 -23 -4
-25 -10 -6 -18 81 -17 96 0 6 8 43 20 83 27 40 7 82 16 93 20 19 7 19 7 -2 18
-31 17 -85 22 -112 11z"/>
<path d="M3136 1296 c-5 -19 -3 -32 5 -37 10 -6 10 -11 1 -22 -10 -12 -10 -16
1 -20 25 -10 30 -57 8 -76 -12 -11 -17 -22 -11 -30 9 -15 44 -11 143 16 45 12
55 18 43 25 -9 5 -16 14 -16 21 0 27 -45 106 -64 111 -25 7 -12 22 24 29 14 2
0 4 -30 4 -30 0 -63 -4 -72 -9 -10 -5 -18 -3 -21 5 -2 6 -7 -1 -11 -17z m34
-176 c0 -5 -4 -10 -10 -10 -5 0 -10 5 -10 10 0 6 5 10 10 10 6 0 10 -4 10 -10z"/>
<path d="M317 1234 c-3 -4 -18 -8 -32 -9 -14 -2 -46 -14 -73 -26 -61 -31 -33
-37 44 -10 58 21 82 36 73 46 -3 3 -9 2 -12 -1z"/>
<path d="M3415 1178 c-36 -18 -48 -27 -30 -23 17 4 47 9 68 12 41 6 53 16 34
31 -8 6 -31 0 -72 -20z"/>
<path d="M720 1080 c0 -5 5 -10 10 -10 6 0 10 5 10 10 0 6 -4 10 -10 10 -5 0
-10 -4 -10 -10z"/>
<path d="M0 1041 c0 -23 5 -41 11 -41 5 0 7 -4 4 -10 -10 -16 52 -16 190 1 60
7 52 7 -52 5 -122 -3 -157 6 -65 17 27 3 64 15 82 25 l32 20 -53 6 c-30 3 -75
8 -101 12 l-48 6 0 -41z"/>
<path d="M292 1067 c18 -19 38 -22 38 -7 0 6 -4 10 -9 10 -5 0 -18 3 -28 7
-17 6 -17 6 -1 -10z"/>
<path d="M830 1069 c0 -5 5 -7 10 -4 6 3 10 8 10 11 0 2 -4 4 -10 4 -5 0 -10
-5 -10 -11z"/>
<path d="M999 1057 c-37 -31 -43 -54 -19 -79 16 -17 22 -19 35 -8 18 15 11 31
-13 24 -9 -2 -2 3 16 11 34 16 39 31 20 58 -12 16 -15 15 -39 -6z"/>
<path d="M798 1032 c-10 -2 -18 -9 -18 -17 0 -7 -13 -18 -30 -25 -31 -13 -56
-37 -48 -45 3 -3 15 4 28 15 13 11 30 18 38 15 8 -3 20 3 27 12 8 10 19 18 26
18 17 0 23 22 7 27 -7 2 -21 3 -30 0z"/>
<path d="M351 1016 c-7 -8 -21 -12 -34 -8 -12 3 -19 1 -15 -3 5 -5 27 -8 49
-7 34 2 39 0 30 -12 -13 -16 -61 -28 -111 -27 -22 0 -30 -3 -21 -8 11 -7 11
-10 0 -17 -10 -6 -7 -10 11 -16 15 -4 -14 -7 -70 -6 -114 1 -120 0 -120 -9 0
-5 17 -9 37 -11 20 -1 40 -8 45 -15 13 -22 394 -16 468 8 11 4 20 13 20 21 0
8 6 14 14 14 15 0 31 18 24 26 -6 6 -72 -17 -79 -28 -9 -14 -166 -22 -174 -8
-5 9 -1 10 14 5 11 -3 21 -2 21 3 0 5 -9 12 -20 15 -28 7 -25 24 5 31 14 4 25
11 25 17 0 8 -5 7 -15 -1 -19 -16 -34 -5 -17 12 9 9 22 9 51 2 22 -6 45 -8 51
-4 16 10 -61 29 -96 23 -18 -3 -35 0 -38 6 -10 15 -41 14 -55 -3z m44 -66 c17
-7 15 -9 -12 -9 -18 -1 -33 4 -33 9 0 12 17 12 45 0z"/>
<path d="M910 998 c0 -8 -13 -19 -30 -25 -42 -16 -37 -33 10 -33 39 0 40 1 38
31 -2 30 -18 53 -18 27z"/>
<path d="M490 968 c0 -4 -15 -12 -32 -18 -27 -8 -21 -9 35 -5 37 3 81 8 97 12
53 10 32 22 -35 20 -36 -1 -65 -5 -65 -9z"/>
<path d="M20 960 c36 -12 60 -12 60 0 0 6 -19 10 -42 9 -37 -1 -39 -2 -18 -9z"/>
<path d="M821 956 c-9 -11 -9 -15 1 -19 10 -4 8 -10 -7 -22 l-20 -17 20 4 c15
2 20 12 21 36 1 37 1 37 -15 18z"/>
<path d="M208 943 c7 -3 16 -2 19 1 4 3 -2 6 -13 5 -11 0 -14 -3 -6 -6z"/>
<path d="M1675 940 c-4 -6 5 -10 19 -10 14 0 26 5 26 10 0 6 -9 10 -19 10 -11
0 -23 -4 -26 -10z"/>
<path d="M875 920 c-28 -7 -28 -8 12 -9 23 0 45 4 48 9 7 11 -16 11 -60 0z"/>
<path d="M2508 903 c7 -3 16 -2 19 1 4 3 -2 6 -13 5 -11 0 -14 -3 -6 -6z"/>
<path d="M668 893 c6 -2 18 -2 25 0 6 3 1 5 -13 5 -14 0 -19 -2 -12 -5z"/>
<path d="M2368 883 c6 -2 18 -2 25 0 6 3 1 5 -13 5 -14 0 -19 -2 -12 -5z"/>
<path d="M2188 873 c7 -3 16 -2 19 1 4 3 -2 6 -13 5 -11 0 -14 -3 -6 -6z"/>
<path d="M2798 833 c6 -2 18 -2 25 0 6 3 1 5 -13 5 -14 0 -19 -2 -12 -5z"/>
<path d="M1448 793 c6 -2 18 -2 25 0 6 3 1 5 -13 5 -14 0 -19 -2 -12 -5z"/>
<path d="M1778 793 c7 -3 16 -2 19 1 4 3 -2 6 -13 5 -11 0 -14 -3 -6 -6z"/>
<path d="M2210 780 c0 -5 -9 -10 -20 -10 -11 0 -20 -4 -20 -10 0 -13 6 -13 39
5 16 8 31 11 35 8 3 -4 6 -1 6 5 0 7 -9 12 -20 12 -11 0 -20 -4 -20 -10z"/>
<path d="M1975 750 c-12 -5 14 -6 65 -3 47 3 87 7 89 9 9 8 -135 2 -154 -6z"/>
<path d="M182 601 c-17 -11 7 -21 49 -21 21 0 27 4 23 15 -7 16 -51 20 -72 6z"/>
<path d="M36 585 c-3 -8 -12 -12 -21 -9 -13 5 -15 -5 -15 -68 0 -63 3 -74 18
-76 104 -12 152 -13 152 -4 0 6 18 1 40 -9 22 -11 40 -24 40 -29 0 -14 -16
-12 -50 5 -19 10 -30 11 -30 5 0 -6 14 -16 30 -21 28 -10 41 -29 20 -29 -23 0
-8 -29 20 -39 17 -5 30 -12 30 -13 0 -2 -22 -3 -50 -2 -27 1 -50 -2 -50 -6 0
-10 117 -23 130 -15 6 3 10 2 10 -3 0 -6 16 -10 36 -9 20 1 32 3 25 5 -18 6
-13 20 10 27 16 6 18 9 8 15 -7 5 -18 6 -24 2 -5 -3 -5 1 2 9 10 13 8 15 -15
14 -22 0 -27 -5 -26 -23 1 -32 -28 -24 -32 8 -1 14 0 19 2 12 3 -6 10 -10 15
-6 17 10 -1 24 -31 24 -16 0 -32 5 -35 10 -3 6 -2 10 4 10 5 0 17 3 27 7 12 4
15 3 10 -5 -10 -16 6 -15 38 2 26 13 26 13 6 31 -11 10 -18 21 -15 24 4 3 10
-1 16 -9 8 -13 13 -11 30 10 11 14 18 19 14 13 -3 -7 -1 -13 6 -13 7 0 4 -7
-7 -15 -14 -11 -15 -14 -4 -15 13 0 13 -1 0 -10 -16 -10 -10 -12 52 -12 15 -1
25 -5 22 -9 -3 -5 5 -13 18 -18 20 -8 21 -10 6 -16 -10 -4 -15 -11 -12 -16 3
-5 -1 -9 -9 -9 -8 0 -17 7 -21 15 -3 8 -12 15 -20 15 -11 0 -7 -8 11 -26 21
-21 23 -28 12 -35 -8 -5 -9 -9 -4 -10 6 0 -1 -4 -15 -8 -15 -4 5 -7 50 -7 41
0 66 2 55 4 -37 8 -67 54 -37 58 4 0 20 6 35 12 34 14 47 15 27 2 -11 -7 -5
-9 22 -7 29 1 38 6 38 20 0 9 5 17 11 17 5 0 8 -4 4 -9 -3 -5 -1 -12 5 -16 5
-3 10 -2 10 4 0 6 7 8 15 5 11 -5 13 -2 9 10 -7 18 3 20 25 7 7 -5 10 -14 7
-20 -9 -13 4 -18 67 -24 38 -4 47 -2 48 12 0 10 2 11 6 4 2 -7 20 -13 39 -13
20 0 33 -4 30 -9 -8 -12 18 -21 64 -21 21 0 41 -4 45 -10 3 -5 13 -6 22 -3 11
4 14 3 9 -5 -4 -7 -3 -12 3 -12 5 0 11 6 14 13 3 9 11 9 35 0 20 -7 43 -8 60
-3 15 5 20 9 10 9 -21 1 -24 17 -5 25 6 3 0 3 -15 1 -15 -2 -30 1 -34 6 -3 5
-14 7 -23 4 -21 -6 -85 18 -74 28 3 4 -6 7 -20 7 -15 0 -27 5 -27 11 0 7 -12
9 -31 7 -22 -4 -33 0 -40 14 -7 14 -6 18 6 18 16 0 20 15 6 24 -5 4 -33 1 -62
-5 -41 -9 -61 -8 -93 2 -23 7 -57 14 -76 15 -58 3 -60 3 -60 21 0 9 -3 13 -7
10 -3 -4 -20 2 -38 13 -18 11 -34 17 -37 14 -8 -8 -128 18 -128 28 0 4 -15 8
-32 8 -18 0 -53 5 -78 11 -25 6 -61 11 -80 10 -65 -2 -112 10 -117 30 -6 23
-29 25 -37 4z m118 -107 c-3 -4 -12 -8 -20 -8 -8 0 -14 4 -14 8 0 4 9 8 19 8
11 0 17 -4 15 -8z m-84 -22 c0 -2 -7 -7 -16 -10 -8 -3 -12 -2 -9 4 6 10 25 14
25 6z m35 -6 c3 -5 -1 -10 -9 -10 -9 0 -16 5 -16 10 0 6 4 10 9 10 6 0 13 -4
16 -10z m42 -6 c-3 -3 -12 -4 -19 -1 -8 3 -5 6 6 6 11 1 17 -2 13 -5z m333
-56 c0 -12 -12 -9 -32 6 -26 19 -22 27 7 14 14 -6 25 -15 25 -20z m363 15 c-7
-2 -21 -2 -30 0 -10 3 -4 5 12 5 17 0 24 -2 18 -5z m-290 -10 c-7 -2 -21 -2
-30 0 -10 3 -4 5 12 5 17 0 24 -2 18 -5z m417 -83 c0 -5 -10 -10 -22 -9 -22 0
-22 1 -3 9 11 5 21 9 23 9 1 1 2 -3 2 -9z"/>
<path d="M80 586 c0 -2 7 -6 15 -10 8 -3 15 -1 15 4 0 6 -7 10 -15 10 -8 0
-15 -2 -15 -4z"/>
<path d="M128 573 c6 -2 18 -2 25 0 6 3 1 5 -13 5 -14 0 -19 -2 -12 -5z"/>
<path d="M998 573 c-16 -2 -28 -9 -28 -15 0 -5 -6 -8 -14 -5 -7 3 -31 0 -51
-8 -31 -10 -34 -14 -19 -18 18 -6 114 -11 124 -7 19 7 90 8 90 1 0 -5 21 -7
48 -5 26 2 42 2 35 -2 -7 -3 -9 -12 -6 -20 7 -19 -24 -43 -48 -37 -9 3 -19 13
-22 23 -7 26 -55 32 -63 8 -4 -14 -13 -19 -33 -16 -16 1 -35 -5 -45 -15 -21
-21 -21 -21 -52 -1 -29 19 -48 9 -21 -11 10 -7 18 -16 17 -19 -4 -17 10 -23
63 -29 32 -3 57 -2 57 4 0 5 -6 9 -14 9 -34 0 -22 18 19 27 24 6 42 7 40 3 -7
-12 33 -20 131 -27 80 -5 95 -3 117 13 32 23 34 34 8 34 -11 0 -22 4 -25 9 -3
4 -25 14 -49 20 -50 14 -85 54 -45 51 41 -4 44 0 12 14 -33 15 -180 27 -226
19z m142 -33 c0 -5 -2 -10 -4 -10 -3 0 -8 5 -11 10 -3 6 -1 10 4 10 6 0 11 -4
11 -10z m70 -59 c0 -6 -4 -13 -10 -16 -5 -3 -10 1 -10 9 0 9 5 16 10 16 6 0
10 -4 10 -9z m77 -54 c4 -7 0 -8 -11 -4 -10 4 -22 7 -27 7 -5 0 -9 4 -9 9 0
12 38 2 47 -12z"/>
<path d="M1708 573 c6 -2 18 -2 25 0 6 3 1 5 -13 5 -14 0 -19 -2 -12 -5z"/>
<path d="M739 559 c-10 -6 -4 -9 19 -9 17 0 32 2 32 4 0 9 -39 13 -51 5z"/>
<path d="M1395 560 c-3 -5 0 -10 7 -10 7 0 24 -3 38 -6 l25 -5 -25 15 c-30 18
-37 19 -45 6z"/>
<path d="M1538 543 c7 -3 16 -2 19 1 4 3 -2 6 -13 5 -11 0 -14 -3 -6 -6z"/>
<path d="M2098 525 c-3 -14 1 -30 8 -36 8 -6 14 -10 15 -8 6 27 3 51 -6 59 -9
8 -14 4 -17 -15z"/>
<path d="M480 530 c0 -5 14 -10 31 -10 17 0 28 4 24 10 -3 6 -17 10 -31 10
-13 0 -24 -4 -24 -10z"/>
<path d="M648 533 c6 -2 18 -2 25 0 6 3 1 5 -13 5 -14 0 -19 -2 -12 -5z"/>
<path d="M1270 530 c20 -13 33 -13 25 0 -3 6 -14 10 -23 10 -15 0 -15 -2 -2
-10z"/>
<path d="M1340 515 c-15 -18 24 -27 46 -10 16 11 15 13 -9 17 -15 3 -31 0 -37
-7z"/>
<path d="M2165 520 c-7 -12 18 -24 37 -18 8 3 5 9 -9 16 -14 8 -24 9 -28 2z"/>
<path d="M1498 513 c7 -3 16 -2 19 1 4 3 -2 6 -13 5 -11 0 -14 -3 -6 -6z"/>
<path d="M2588 503 c6 -2 18 -2 25 0 6 3 1 5 -13 5 -14 0 -19 -2 -12 -5z"/>
<path d="M2320 478 c0 -4 -13 -5 -30 -1 -19 3 -30 1 -30 -6 0 -6 6 -11 13 -11
6 0 23 -3 36 -7 18 -5 22 -3 16 7 -6 10 -3 12 13 8 15 -4 22 -2 22 7 0 8 -9
13 -20 12 -11 -1 -20 -5 -20 -9z"/>
<path d="M600 471 c0 -5 5 -13 10 -16 6 -3 10 -2 10 4 0 5 -4 13 -10 16 -5 3
-10 2 -10 -4z"/>
<path d="M705 470 c-3 -5 3 -10 15 -10 12 0 18 5 15 10 -3 6 -10 10 -15 10 -5
0 -12 -4 -15 -10z"/>
<path d="M2658 473 c6 -2 18 -2 25 0 6 3 1 5 -13 5 -14 0 -19 -2 -12 -5z"/>
<path d="M4690 467 l-25 -11 28 -4 c32 -4 46 4 31 17 -5 5 -20 4 -34 -2z"/>
<path d="M1505 460 c3 -5 18 -10 33 -9 24 0 25 1 7 9 -28 12 -47 12 -40 0z"/>
<path d="M3498 463 c7 -3 16 -2 19 1 4 3 -2 6 -13 5 -11 0 -14 -3 -6 -6z"/>
<path d="M1671 440 c10 -6 34 -6 60 -1 l44 9 -60 1 c-42 0 -55 -2 -44 -9z"/>
<path d="M2410 430 c20 -13 53 -13 45 0 -3 6 -18 10 -33 10 -21 0 -24 -2 -12
-10z"/>
<path d="M4138 433 c7 -3 16 -2 19 1 4 3 -2 6 -13 5 -11 0 -14 -3 -6 -6z"/>
<path d="M4538 433 c6 -2 18 -2 25 0 6 3 1 5 -13 5 -14 0 -19 -2 -12 -5z"/>
<path d="M2543 416 c14 -15 49 -17 44 -3 -1 5 -15 11 -30 13 -22 2 -25 0 -14
-10z"/>
<path d="M2670 416 c28 -17 60 -22 45 -7 -6 5 -23 12 -40 16 l-30 6 25 -15z"/>
<path d="M3981 416 c-9 -10 -8 -15 4 -20 9 -3 13 -10 10 -16 -3 -5 -2 -10 3
-10 11 0 13 48 2 55 -4 3 -13 -1 -19 -9z"/>
<path d="M4185 420 c3 -5 13 -10 21 -10 8 0 12 5 9 10 -3 6 -13 10 -21 10 -8
0 -12 -4 -9 -10z"/>
<path d="M4258 423 c7 -3 16 -2 19 1 4 3 -2 6 -13 5 -11 0 -14 -3 -6 -6z"/>
<path d="M4405 420 c3 -5 13 -10 21 -10 8 0 12 5 9 10 -3 6 -13 10 -21 10 -8
0 -12 -4 -9 -10z"/>
<path d="M0 406 c0 -8 6 -17 13 -19 9 -4 9 -6 -1 -6 -21 -1 -3 -21 19 -21 10
0 19 -5 19 -12 0 -9 3 -9 12 0 10 10 10 15 -2 22 -13 9 -13 11 0 20 13 9 13
11 0 20 -23 15 -60 12 -60 -4z"/>
<path d="M1927 413 c-12 -11 -8 -23 8 -23 8 0 15 7 15 15 0 16 -12 20 -23 8z"/>
<path d="M4062 408 c3 -7 15 -14 29 -16 23 -2 23 -2 5 13 -24 18 -39 20 -34 3z"/>
<path d="M1493 403 c9 -2 23 -2 30 0 6 3 -1 5 -18 5 -16 0 -22 -2 -12 -5z"/>
<path d="M2390 388 c0 -17 3 -19 9 -9 5 7 14 10 20 7 6 -4 16 -4 22 0 14 8 -8
24 -33 24 -12 0 -18 -8 -18 -22z"/>
<path d="M3066 403 c-4 -4 -23 -8 -43 -10 -20 -1 -40 -6 -46 -12 -6 -6 26 -11
93 -13 56 -2 104 0 106 3 4 8 -62 39 -85 39 -10 0 -21 -3 -25 -7z"/>
<path d="M4165 400 c3 -5 10 -10 16 -10 5 0 9 5 9 10 0 6 -7 10 -16 10 -8 0
-12 -4 -9 -10z"/>
<path d="M4340 394 c0 -11 -5 -14 -17 -9 -28 11 -46 11 -50 -1 -6 -17 28 -22
70 -10 36 10 37 12 17 24 -17 10 -20 10 -20 -4z"/>
<path d="M1073 393 c9 -2 23 -2 30 0 6 3 -1 5 -18 5 -16 0 -22 -2 -12 -5z"/>
<path d="M2900 391 c0 -10 58 -12 64 -3 2 4 -11 8 -30 9 -19 1 -34 -2 -34 -6z"/>
<path d="M4035 390 c3 -5 10 -10 16 -10 5 0 9 5 9 10 0 6 -7 10 -16 10 -8 0
-12 -4 -9 -10z"/>
<path d="M4965 359 c0 -22 3 -39 7 -39 9 0 38 30 38 40 0 5 17 6 38 3 34 -6
36 -5 23 10 -8 11 -22 15 -35 11 -12 -3 -33 -1 -47 4 -23 9 -24 8 -24 -29z"/>
<path d="M138 383 c7 -3 16 -2 19 1 4 3 -2 6 -13 5 -11 0 -14 -3 -6 -6z"/>
<path d="M4448 383 c7 -3 16 -2 19 1 4 3 -2 6 -13 5 -11 0 -14 -3 -6 -6z"/>
<path d="M4490 380 c0 -5 7 -7 15 -4 8 4 15 8 15 10 0 2 -7 4 -15 4 -8 0 -15
-4 -15 -10z"/>
<path d="M4693 376 c2 -6 16 -12 31 -14 35 -4 26 14 -9 20 -16 4 -24 1 -22 -6z"/>
<path d="M3238 373 c6 -2 18 -2 25 0 6 3 1 5 -13 5 -14 0 -19 -2 -12 -5z"/>
<path d="M3416 366 c21 -15 30 -14 19 3 -3 6 -14 11 -23 11 -13 0 -13 -2 4
-14z"/>
<path d="M4405 370 c-3 -5 3 -10 15 -10 12 0 18 5 15 10 -3 6 -10 10 -15 10
-5 0 -12 -4 -15 -10z"/>
<path d="M4540 376 c0 -2 9 -6 20 -9 11 -3 20 -1 20 4 0 5 -9 9 -20 9 -11 0
-20 -2 -20 -4z"/>
<path d="M3320 360 c0 -13 11 -13 30 0 12 8 11 10 -7 10 -13 0 -23 -4 -23 -10z"/>
<path d="M5230 355 c0 -9 9 -15 21 -15 18 0 19 2 9 15 -7 8 -16 15 -21 15 -5
0 -9 -7 -9 -15z"/>
<path d="M5330 360 c0 -5 5 -10 10 -10 6 0 10 5 10 10 0 6 -4 10 -10 10 -5 0
-10 -4 -10 -10z"/>
<path d="M2588 353 c7 -3 16 -2 19 1 4 3 -2 6 -13 5 -11 0 -14 -3 -6 -6z"/>
<path d="M3509 356 c-2 -3 -16 -6 -31 -8 -37 -5 -44 -15 -17 -23 13 -4 25 -3
26 2 2 6 16 8 31 6 15 -3 23 -1 17 4 -5 4 -13 12 -16 16 -3 4 -8 5 -10 3z"/>
<path d="M4527 351 c-10 -4 -18 -11 -18 -16 0 -6 -7 -9 -16 -7 -13 3 -13 1 2
-14 12 -13 36 -19 79 -21 45 -2 55 0 39 7 -13 5 -23 16 -23 24 0 10 -6 13 -15
10 -9 -4 -15 0 -15 10 0 17 -5 18 -33 7z"/>
<path d="M0 341 c0 -6 7 -11 16 -11 8 0 12 -4 9 -10 -3 -5 -1 -10 5 -10 18 0
7 34 -13 38 -9 2 -17 -1 -17 -7z"/>
<path d="M127 343 c-3 -5 10 -9 29 -10 19 -2 34 2 34 7 0 12 -57 14 -63 3z"/>
<path d="M4156 341 c-3 -5 4 -11 16 -14 29 -8 32 -4 8 11 -10 6 -21 8 -24 3z"/>
<path d="M5445 340 c-3 -5 1 -10 10 -10 9 0 13 5 10 10 -3 6 -8 10 -10 10 -2
0 -7 -4 -10 -10z"/>
<path d="M80 313 c-8 -15 -19 -32 -25 -36 -6 -5 -1 -6 10 -2 11 5 31 8 44 9
24 1 44 26 20 26 -6 0 -17 7 -23 16 -10 13 -14 12 -26 -13z"/>
<path d="M1220 336 c0 -2 9 -6 20 -9 11 -3 18 -1 14 4 -5 9 -34 13 -34 5z"/>
<path d="M3868 333 c7 -3 16 -2 19 1 4 3 -2 6 -13 5 -11 0 -14 -3 -6 -6z"/>
<path d="M4753 333 c9 -2 23 -2 30 0 6 3 -1 5 -18 5 -16 0 -22 -2 -12 -5z"/>
<path d="M4807 324 c3 -8 16 -14 29 -14 32 0 30 6 -5 18 -25 9 -29 8 -24 -4z"/>
<path d="M5030 331 c0 -6 17 -11 38 -12 20 0 31 -3 25 -6 -26 -10 -12 -23 24
-23 35 0 36 1 17 16 -10 8 -14 13 -7 10 6 -4 14 -2 18 4 4 6 -11 10 -39 10
-24 0 -51 3 -60 6 -9 3 -16 1 -16 -5z"/>
<path d="M5630 333 c0 -7 -7 -10 -17 -7 -15 5 -16 4 -3 -5 13 -10 13 -12 0
-20 -8 -6 -11 -14 -6 -18 5 -4 11 -2 13 5 3 6 11 12 19 12 16 0 18 9 4 30 -6
9 -10 11 -10 3z"/>
<path d="M5650 336 c0 -2 7 -6 15 -10 8 -3 15 -1 15 4 0 6 -7 10 -15 10 -8 0
-15 -2 -15 -4z"/>
<path d="M5820 326 c0 -9 8 -12 27 -8 25 5 25 6 8 13 -29 11 -35 10 -35 -5z"/>
<path d="M5308 323 c7 -3 16 -2 19 1 4 3 -2 6 -13 5 -11 0 -14 -3 -6 -6z"/>
<path d="M5890 320 c8 -5 20 -10 25 -10 6 0 3 5 -5 10 -8 5 -19 10 -25 10 -5
0 -3 -5 5 -10z"/>
<path d="M5951 316 c-9 -11 -6 -12 14 -8 14 2 22 8 19 13 -8 13 -20 11 -33 -5z"/>
<path d="M6007 313 c-7 -7 39 -33 57 -32 6 0 1 5 -11 11 -13 6 -23 15 -23 20
0 10 -14 11 -23 1z"/>
<path d="M4910 300 c0 -5 7 -10 15 -10 8 0 15 5 15 10 0 6 -7 10 -15 10 -8 0
-15 -4 -15 -10z"/>
<path d="M5018 303 c7 -3 16 -2 19 1 4 3 -2 6 -13 5 -11 0 -14 -3 -6 -6z"/>
<path d="M5505 300 c3 -5 11 -10 16 -10 6 0 7 5 4 10 -3 6 -11 10 -16 10 -6 0
-7 -4 -4 -10z"/>
<path d="M5690 295 c-15 -18 -10 -18 24 -5 17 6 26 6 26 0 0 -6 4 -10 10 -10
5 0 7 7 4 15 -4 8 -16 15 -29 15 -12 0 -28 -7 -35 -15z"/>
<path d="M510 290 c0 -5 11 -10 25 -10 14 0 25 5 25 10 0 6 -11 10 -25 10 -14
0 -25 -4 -25 -10z"/>
<path d="M596 285 c-7 -19 29 -21 40 -2 4 6 4 9 -1 5 -4 -4 -14 -3 -20 2 -9 8
-14 6 -19 -5z"/>
<path d="M685 290 c3 -5 -3 -10 -14 -10 -14 0 -19 -5 -15 -14 7 -19 60 -15 56
4 -2 9 7 11 35 7 35 -6 36 -5 19 8 -22 17 -91 21 -81 5z"/>
<path d="M4265 290 c-4 -6 5 -10 19 -10 14 0 26 5 26 10 0 6 -9 10 -19 10 -11
0 -23 -4 -26 -10z"/>
<path d="M4326 285 c-3 -9 0 -15 9 -15 8 0 15 7 15 15 0 8 -4 15 -9 15 -5 0
-11 -7 -15 -15z"/>
<path d="M4640 290 c0 -5 14 -10 32 -10 36 0 35 4 -4 14 -17 4 -28 2 -28 -4z"/>
<path d="M27 270 c4 -16 2 -19 -11 -14 -20 8 -21 -12 -2 -32 19 -19 30 -18 51
6 18 19 17 20 -3 20 -13 0 -22 6 -22 14 0 8 -4 17 -9 20 -5 4 -7 -3 -4 -14z"/>
<path d="M1430 280 c-21 -6 -22 -8 -8 -14 9 -4 27 -6 39 -4 18 2 20 5 8 14 -8
6 -25 8 -39 4z"/>
<path d="M1868 283 c7 -3 16 -2 19 1 4 3 -2 6 -13 5 -11 0 -14 -3 -6 -6z"/>
<path d="M2925 280 c3 -5 8 -10 11 -10 2 0 4 5 4 10 0 6 -5 10 -11 10 -5 0 -7
-4 -4 -10z"/>
<path d="M4407 283 c-17 -17 -4 -28 34 -29 l41 -1 -29 18 c-31 21 -36 22 -46
12z"/>
<path d="M940 270 c0 -5 6 -10 14 -10 8 0 23 -3 33 -6 16 -5 16 -4 -1 10 -22
18 -46 21 -46 6z"/>
<path d="M1266 265 c-9 -24 3 -41 29 -40 27 2 48 15 23 15 -9 0 -18 9 -21 20
-6 24 -22 26 -31 5z"/>
<path d="M3133 273 c9 -2 23 -2 30 0 6 3 -1 5 -18 5 -16 0 -22 -2 -12 -5z"/>
<path d="M3965 270 c3 -5 8 -10 11 -10 2 0 4 5 4 10 0 6 -5 10 -11 10 -5 0 -7
-4 -4 -10z"/>
<path d="M4538 273 c7 -3 16 -2 19 1 4 3 -2 6 -13 5 -11 0 -14 -3 -6 -6z"/>
<path d="M4595 270 c3 -5 11 -10 16 -10 6 0 7 5 4 10 -3 6 -11 10 -16 10 -6 0
-7 -4 -4 -10z"/>
<path d="M163 263 c-15 -6 -17 -33 -3 -33 6 0 10 5 10 11 0 8 14 10 41 6 29
-4 38 -2 31 5 -12 12 -60 18 -79 11z"/>
<path d="M803 263 c9 -2 23 -2 30 0 6 3 -1 5 -18 5 -16 0 -22 -2 -12 -5z"/>
<path d="M1040 259 c0 -6 -5 -16 -12 -23 -10 -10 -17 -10 -38 1 -30 15 -54 17
-45 3 3 -5 -1 -10 -9 -10 -8 0 -18 -5 -22 -11 -5 -9 1 -10 20 -5 22 5 26 3 26
-14 0 -21 10 -25 94 -34 28 -4 53 -10 56 -15 8 -14 59 -31 64 -22 5 7 -47 38
-89 52 -14 5 -9 7 18 8 25 1 37 6 37 15 0 19 -58 10 -83 -12 -15 -13 -20 -14
-27 -2 -9 15 14 45 28 36 5 -3 21 -2 37 2 l28 8 -42 16 c-22 9 -41 12 -41 7z"/>
<path d="M4505 260 c-3 -5 1 -10 10 -10 9 0 13 5 10 10 -3 6 -8 10 -10 10 -2
0 -7 -4 -10 -10z"/>
<path d="M260 250 c0 -5 7 -7 15 -4 8 4 15 8 15 10 0 2 -7 4 -15 4 -8 0 -15
-4 -15 -10z"/>
<path d="M1130 252 c0 -12 24 -22 51 -22 10 0 19 -5 19 -11 0 -6 -7 -8 -16 -5
-9 3 -12 2 -9 -4 4 -6 23 -8 43 -6 20 2 45 0 55 -5 9 -6 17 -6 17 -2 0 13 -37
32 -83 43 -24 5 -51 12 -60 16 -9 3 -17 2 -17 -4z"/>
<path d="M2910 250 c0 -5 5 -10 11 -10 5 0 7 5 4 10 -3 6 -8 10 -11 10 -2 0
-4 -4 -4 -10z"/>
<path d="M3282 246 c-21 -11 -18 -12 27 -13 40 -1 48 1 39 11 -15 16 -38 17
-66 2z"/>
<path d="M4091 256 c2 -2 24 -6 49 -10 31 -4 40 -3 30 4 -14 9 -88 15 -79 6z"/>
<path d="M814 239 c-3 -5 6 -9 20 -9 31 0 34 6 6 13 -11 3 -23 1 -26 -4z"/>
<path d="M3035 241 c3 -5 1 -12 -5 -16 -5 -3 -10 -11 -10 -16 0 -6 4 -8 9 -4
5 3 12 1 16 -5 4 -6 11 -8 16 -5 5 4 9 1 9 -4 0 -6 5 -11 10 -11 21 0 9 20
-15 26 -27 7 -33 20 -13 26 7 3 5 7 -6 11 -9 4 -15 3 -11 -2z"/>
<path d="M3080 231 c0 -5 9 -7 20 -4 11 3 20 7 20 9 0 2 -9 4 -20 4 -11 0 -20
-4 -20 -9z"/>
<path d="M3170 230 c0 -5 15 -10 33 -10 24 0 28 3 17 10 -20 13 -50 13 -50 0z"/>
<path d="M4900 236 c0 -2 14 -6 30 -8 17 -3 30 -1 30 4 0 4 -13 8 -30 8 -16 0
-30 -2 -30 -4z"/>
<path d="M300 219 c0 -5 5 -7 10 -4 6 3 10 8 10 11 0 2 -4 4 -10 4 -5 0 -10
-5 -10 -11z"/>
<path d="M768 219 c-8 -6 1 -9 25 -9 20 0 37 2 37 4 0 9 -50 12 -62 5z"/>
<path d="M2115 220 l-30 -8 33 -1 c17 0 32 4 32 9 0 6 -1 9 -2 9 -2 -1 -16 -5
-33 -9z"/>
<path d="M2173 223 c9 -2 25 -2 35 0 9 3 1 5 -18 5 -19 0 -27 -2 -17 -5z"/>
<path d="M6215 220 c-3 -5 1 -10 10 -10 9 0 13 5 10 10 -3 6 -8 10 -10 10 -2
0 -7 -4 -10 -10z"/>
<path d="M85 213 c-11 -3 -28 -11 -38 -18 -17 -12 -16 -13 10 -20 15 -3 31
-12 35 -18 6 -9 8 -9 8 1 0 7 14 12 33 13 17 0 26 3 20 6 -28 11 -11 23 32 23
59 0 58 14 -1 18 -37 2 -52 -2 -70 -19 -19 -18 -27 -20 -36 -11 -9 9 -7 12 9
12 12 0 25 5 28 10 6 11 3 11 -30 3z"/>
<path d="M565 210 c3 -5 10 -10 16 -10 5 0 9 5 9 10 0 6 -7 10 -16 10 -8 0
-12 -4 -9 -10z"/>
<path d="M1878 213 c7 -3 16 -2 19 1 4 3 -2 6 -13 5 -11 0 -14 -3 -6 -6z"/>
<path d="M1940 210 c0 -5 12 -10 28 -10 21 0 24 2 12 10 -20 13 -40 13 -40 0z"/>
<path d="M2308 213 c7 -3 16 -2 19 1 4 3 -2 6 -13 5 -11 0 -14 -3 -6 -6z"/>
<path d="M5218 213 c7 -3 16 -2 19 1 4 3 -2 6 -13 5 -11 0 -14 -3 -6 -6z"/>
<path d="M880 199 c0 -5 5 -7 10 -4 6 3 10 8 10 11 0 2 -4 4 -10 4 -5 0 -10
-5 -10 -11z"/>
<path d="M1150 200 c0 -5 5 -10 11 -10 5 0 7 5 4 10 -3 6 -8 10 -11 10 -2 0
-4 -4 -4 -10z"/>
<path d="M703 193 c-23 -8 -13 -23 15 -23 20 0 23 -3 12 -10 -12 -8 -12 -10 3
-16 26 -10 31 2 13 28 -9 12 -16 18 -16 13 0 -6 -4 -5 -8 1 -4 6 -13 9 -19 7z"/>
<path d="M2990 196 c0 -2 7 -7 16 -10 8 -3 12 -2 9 4 -6 10 -25 14 -25 6z"/>
<path d="M258 183 c6 -2 18 -2 25 0 6 3 1 5 -13 5 -14 0 -19 -2 -12 -5z"/>
<path d="M3128 183 c6 -2 18 -2 25 0 6 3 1 5 -13 5 -14 0 -19 -2 -12 -5z"/>
<path d="M4832 179 c3 -8 18 -15 34 -17 33 -4 24 11 -15 23 -17 5 -22 4 -19
-6z"/>
<path d="M615 164 c-18 -13 -17 -14 13 -8 31 6 47 -9 20 -19 -7 -2 -10 -8 -6
-12 4 -4 13 -1 21 7 12 11 12 17 2 31 -15 21 -24 21 -50 1z"/>
<path d="M910 176 c0 -2 7 -7 16 -10 8 -3 12 -2 9 4 -6 10 -25 14 -25 6z"/>
<path d="M2970 165 c0 -9 9 -15 21 -15 18 0 19 2 9 15 -7 8 -16 15 -21 15 -5
0 -9 -7 -9 -15z"/>
<path d="M3050 170 c0 -5 5 -10 11 -10 5 0 7 5 4 10 -3 6 -8 10 -11 10 -2 0
-4 -4 -4 -10z"/>
<path d="M2860 160 c0 -5 5 -10 11 -10 5 0 7 5 4 10 -3 6 -8 10 -11 10 -2 0
-4 -4 -4 -10z"/>
<path d="M2920 166 c0 -2 9 -6 20 -9 11 -3 18 -1 14 4 -5 9 -34 13 -34 5z"/>
<path d="M3255 160 c-4 -6 5 -10 19 -10 14 0 26 5 26 10 0 6 -9 10 -19 10 -11
0 -23 -4 -26 -10z"/>
<path d="M5210 161 c0 -6 5 -13 10 -16 6 -3 10 -1 10 5 0 7 7 10 15 6 8 -3 15
-1 15 4 0 6 -11 10 -25 10 -14 0 -25 -4 -25 -9z"/>
<path d="M5478 163 c7 -3 16 -2 19 1 4 3 -2 6 -13 5 -11 0 -14 -3 -6 -6z"/>
<path d="M1003 153 c9 -2 23 -2 30 0 6 3 -1 5 -18 5 -16 0 -22 -2 -12 -5z"/>
<path d="M5934 146 c-4 -11 -14 -16 -25 -13 -10 3 -20 -2 -23 -10 -5 -11 3
-14 39 -11 55 5 60 10 35 33 -18 17 -20 17 -26 1z"/>
<path d="M340 135 c0 -9 6 -15 13 -13 22 4 56 -12 61 -30 3 -10 4 -8 3 6 -1
12 -5 23 -10 22 -4 0 -21 7 -37 15 -27 14 -30 14 -30 0z"/>
<path d="M5830 140 c-8 -5 -5 -9 8 -12 11 -3 25 -2 32 2 8 5 5 9 -8 12 -11 3
-25 2 -32 -2z"/>
<path d="M500 128 c0 -9 5 -20 11 -23 17 -11 20 0 4 21 -13 17 -14 17 -15 2z"/>
<path d="M957 129 c7 -7 15 -10 18 -7 3 3 -2 9 -12 12 -14 6 -15 5 -6 -5z"/>
<path d="M5545 130 c3 -5 8 -10 11 -10 2 0 4 5 4 10 0 6 -5 10 -11 10 -5 0 -7
-4 -4 -10z"/>
<path d="M6000 130 c-13 -8 -12 -10 3 -10 9 0 26 -5 36 -11 19 -13 71 -5 71
11 0 5 -16 7 -34 5 -19 -3 -38 0 -41 5 -8 12 -16 12 -35 0z"/>
<path d="M275 120 c-3 -5 1 -10 10 -10 9 0 13 5 10 10 -3 6 -8 10 -10 10 -2 0
-7 -4 -10 -10z"/>
<path d="M538 123 c7 -3 16 -2 19 1 4 3 -2 6 -13 5 -11 0 -14 -3 -6 -6z"/>
<path d="M570 120 c0 -5 5 -10 11 -10 5 0 7 5 4 10 -3 6 -8 10 -11 10 -2 0 -4
-4 -4 -10z"/>
<path d="M3088 123 c7 -3 16 -2 19 1 4 3 -2 6 -13 5 -11 0 -14 -3 -6 -6z"/>
<path d="M244 105 c8 -8 18 -15 22 -15 3 0 1 7 -6 15 -7 8 -17 15 -22 15 -5 0
-3 -7 6 -15z"/>
<path d="M1 94 c0 -11 3 -14 6 -6 3 7 2 16 -1 19 -3 4 -6 -2 -5 -13z"/>
<path d="M624 80 c-21 -21 -37 -40 -46 -55 -4 -6 26 -10 83 -10 83 0 109 10
44 17 -18 2 -30 9 -31 18 0 20 -14 50 -23 50 -4 0 -16 -9 -27 -20z"/>
<path d="M1520 90 c-8 -5 -11 -12 -8 -16 4 -3 14 1 23 10 18 17 9 21 -15 6z"/>
<path d="M3250 90 c0 -5 5 -10 10 -10 6 0 10 5 10 10 0 6 -4 10 -10 10 -5 0
-10 -4 -10 -10z"/>
<path d="M6325 90 c-18 -8 -17 -9 8 -9 15 -1 27 4 27 9 0 12 -8 12 -35 0z"/>
<path d="M88 83 c7 -3 16 -2 19 1 4 3 -2 6 -13 5 -11 0 -14 -3 -6 -6z"/>
<path d="M440 80 c-12 -8 -11 -10 6 -10 11 0 25 -5 31 -11 7 -7 12 -6 16 5 4
9 2 16 -2 16 -5 0 -15 2 -23 5 -7 3 -20 0 -28 -5z"/>
<path d="M3108 83 c6 -2 18 -2 25 0 6 3 1 5 -13 5 -14 0 -19 -2 -12 -5z"/>
<path d="M6194 73 c-11 -10 -35 -26 -53 -35 -28 -16 -34 -16 -47 -4 -11 11
-11 16 -1 20 6 3 3 4 -9 1 -12 -3 -59 -1 -105 4 -77 9 -88 8 -131 -12 -27 -12
-48 -26 -48 -30 0 -5 4 -6 9 -3 5 4 12 0 14 -6 4 -10 8 -9 16 2 7 9 11 10 11
3 0 -9 68 -12 275 -13 l275 0 0 30 c0 32 -2 33 -66 30 -23 -1 -58 6 -79 14
-45 19 -37 19 -61 -1z"/>
<path d="M2978 73 c7 -3 16 -2 19 1 4 3 -2 6 -13 5 -11 0 -14 -3 -6 -6z"/>
<path d="M5813 70 c-13 -5 -23 -12 -23 -15 0 -8 53 6 65 16 12 12 -13 11 -42
-1z"/>
<path d="M1665 60 c3 -5 8 -10 11 -10 2 0 4 5 4 10 0 6 -5 10 -11 10 -5 0 -7
-4 -4 -10z"/>
<path d="M2000 60 c0 -5 5 -10 10 -10 6 0 10 5 10 10 0 6 -4 10 -10 10 -5 0
-10 -4 -10 -10z"/>
<path d="M2848 63 c6 -2 18 -2 25 0 6 3 1 5 -13 5 -14 0 -19 -2 -12 -5z"/>
<path d="M3075 60 c3 -5 8 -10 11 -10 2 0 4 5 4 10 0 6 -5 10 -11 10 -5 0 -7
-4 -4 -10z"/>
<path d="M4200 55 c-11 -13 -9 -15 18 -13 24 2 29 5 20 15 -14 17 -23 16 -38
-2z"/>
<path d="M12 40 c-15 -25 -15 -40 0 -40 6 0 8 3 5 6 -11 12 14 46 29 40 9 -3
12 -1 9 4 -10 16 -29 12 -43 -10z"/>
<path d="M450 50 c0 -5 5 -10 10 -10 6 0 10 5 10 10 0 6 -4 10 -10 10 -5 0
-10 -4 -10 -10z"/>
<path d="M1370 50 c0 -5 5 -10 10 -10 6 0 10 5 10 10 0 6 -4 10 -10 10 -5 0
-10 -4 -10 -10z"/>
<path d="M1436 45 c-11 -8 -16 -15 -10 -15 5 0 18 7 28 15 11 8 16 15 10 15
-5 0 -18 -7 -28 -15z"/>
<path d="M1628 53 c7 -3 16 -2 19 1 4 3 -2 6 -13 5 -11 0 -14 -3 -6 -6z"/>
<path d="M2828 43 c7 -3 16 -2 19 1 4 3 -2 6 -13 5 -11 0 -14 -3 -6 -6z"/>
<path d="M115 30 c-3 -5 3 -10 15 -10 12 0 18 5 15 10 -3 6 -10 10 -15 10 -5
0 -12 -4 -15 -10z"/>
<path d="M1815 30 c-4 -6 5 -10 19 -10 14 0 26 5 26 10 0 6 -9 10 -19 10 -11
0 -23 -4 -26 -10z"/>
<path d="M3117 24 c3 -9 21 -14 51 -14 55 0 45 15 -15 23 -33 4 -40 2 -36 -9z"/>
<path d="M185 10 c-8 -13 25 -13 45 0 12 8 9 10 -12 10 -15 0 -30 -4 -33 -10z"/>
<path d="M1400 9 c0 -5 11 -9 25 -9 33 0 33 15 0 16 -14 1 -25 -2 -25 -7z"/>
<path d="M3735 10 c-4 -6 11 -10 37 -9 33 0 38 2 23 9 -28 12 -53 12 -60 0z"/>
<path d="M5500 10 c-17 -5 3 -8 63 -9 52 -1 87 3 87 9 0 12 -113 12 -150 0z"/>
</g>
</svg>
